<svg width="120" height="60" viewBox="0 0 120 60" fill="none" xmlns="http://www.w3.org/2000/svg">
  <path fill-rule="evenodd" clip-rule="evenodd" d="M60 12C48.954 12 40 20.954 40 32C40 41.02 45.584 48.84 53.368 51.624C54.368 51.804 54.76 51.204 54.76 50.684C54.76 50.224 54.744 48.924 54.736 47.244C49.708 48.444 48.552 44.916 48.552 44.916C47.628 42.516 46.308 41.92 46.308 41.92C44.484 40.68 46.444 40.704 46.444 40.704C48.456 40.844 49.496 42.764 49.496 42.764C51.28 45.884 54.204 45.004 54.796 44.704C54.976 43.404 55.516 42.524 56.116 42.236C51.716 41.944 47.076 40.324 47.076 32.764C47.076 30.524 47.876 28.704 49.536 27.284C49.316 26.992 48.616 25.084 49.736 22.524C49.736 22.524 51.404 21.996 54.716 24.264C56.316 23.824 58.016 23.604 59.716 23.596C61.416 23.604 63.116 23.824 64.716 24.264C68.024 21.996 69.692 22.524 69.692 22.524C70.812 25.084 70.112 26.992 69.892 27.284C71.556 28.704 72.352 30.524 72.352 32.764C72.352 40.344 67.704 41.94 63.292 42.224C64.036 42.884 64.692 44.184 64.692 46.164C64.692 49.004 64.668 51.304 64.668 51.984C64.668 52.508 65.056 53.112 66.072 52.924C73.848 50.136 79.428 42.32 79.428 33.3C79.428 21.254 70.474 12.3 59.428 12.3" fill="currentColor"/>
</svg> 