<svg width="120" height="60" viewBox="0 0 120 60" fill="none" xmlns="http://www.w3.org/2000/svg">
  <path d="M60 20C55 20 52.5 22.5 52.5 27.5C55 25 57.5 24.17 60 25C61.24 25.41 62.09 26.26 63.04 27.21C65.13 29.3 67.67 31.84 72.5 31.84C77.5 31.84 80 29.34 80 24.34C77.5 26.84 75 27.67 72.5 26.84C71.26 26.43 70.41 25.58 69.46 24.63C67.37 22.54 64.83 20 60 20ZM52.5 31.84C47.5 31.84 45 34.34 45 39.34C47.5 36.84 50 36.01 52.5 36.84C53.74 37.25 54.59 38.1 55.54 39.05C57.63 41.14 60.17 43.68 65 43.68C70 43.68 72.5 41.18 72.5 36.18C70 38.68 67.5 39.51 65 38.68C63.76 38.27 62.91 37.42 61.96 36.47C59.87 34.38 57.33 31.84 52.5 31.84Z" fill="currentColor"/>
</svg> 